<?xml version="1.0" standalone="no"?>
<!DOCTYPE svg PUBLIC "-//W3C//DTD SVG 20010904//EN"
 "http://www.w3.org/TR/2001/REC-SVG-20010904/DTD/svg10.dtd">
<svg version="1.0" xmlns="http://www.w3.org/2000/svg"
 width="500.000000pt" height="500.000000pt" viewBox="0 0 500.000000 500.000000"
 preserveAspectRatio="xMidYMid meet">
<metadata>
Created by potrace 1.11, written by Peter Selinger 2001-2013
</metadata>
<g transform="translate(0.000000,500.000000) scale(0.100000,-0.100000)"
fill="#000000" stroke="none">
<path d="M1406 4963 c-19 -21 -45 -51 -57 -68 -13 -16 -26 -32 -30 -35 -28
-22 -116 -176 -167 -290 -16 -36 -55 -110 -87 -165 -32 -55 -74 -142 -95 -192
-20 -51 -39 -91 -41 -88 -3 2 -5 -4 -6 -13 -1 -31 -57 -227 -65 -230 -5 -2 -6
-8 -3 -12 3 -5 1 -49 -5 -99 -18 -157 20 -405 91 -605 44 -122 46 -114 -34
-143 l-49 -18 4 -110 c4 -106 5 -113 48 -200 29 -60 61 -107 97 -143 55 -56
139 -102 186 -102 35 0 81 -43 74 -70 -3 -11 0 -21 6 -23 6 -2 13 -96 18 -258
4 -139 11 -274 14 -299 10 -72 46 -200 75 -265 21 -46 28 -83 34 -160 7 -106
10 -131 19 -155 21 -59 47 -165 43 -177 -4 -9 -2 -11 6 -7 8 5 9 2 5 -10 -4
-10 -7 -20 -7 -22 0 -3 -4 -2 -10 1 -5 3 -10 1 -10 -5 0 -6 -30 -41 -66 -78
-71 -73 -102 -130 -181 -331 -48 -126 -90 -267 -128 -435 -33 -144 -33 -156 4
-156 25 0 30 4 35 38 20 108 134 452 197 590 16 35 29 65 29 67 0 3 16 39 36
81 26 56 38 74 47 65 6 -6 19 -11 29 -11 10 0 25 -12 34 -26 62 -94 508 -298
743 -340 203 -36 475 -1 796 103 213 69 257 93 350 187 66 68 177 224 198 279
15 39 214 -315 310 -549 52 -127 121 -337 139 -424 11 -56 14 -60 40 -60 15 0
28 2 28 4 0 9 -38 161 -55 221 -42 152 -142 412 -231 601 -18 39 -34 77 -36
85 -2 8 -6 16 -9 19 -11 11 -78 150 -71 150 4 0 2 4 -4 8 -6 4 -19 21 -28 39
-9 18 -25 41 -36 51 -19 18 -19 21 -5 68 9 27 18 72 22 99 3 28 14 76 24 107
37 113 69 255 80 358 6 58 14 135 18 172 4 37 4 69 1 70 -4 2 -10 67 -14 144
l-7 142 63 46 c76 55 121 96 143 130 10 14 22 23 28 19 6 -3 7 -1 3 6 -4 6 -3
17 2 24 45 54 78 316 48 375 -17 32 -74 82 -95 82 -8 0 -6 12 5 38 43 97 117
374 135 507 18 127 18 426 0 525 -14 82 -43 200 -59 241 -6 15 -8 30 -5 33 4
3 1 6 -5 6 -7 0 -12 5 -12 11 0 6 -24 58 -52 117 -29 59 -51 111 -50 115 1 5
-2 6 -8 2 -5 -3 -10 -2 -10 4 0 21 -141 197 -231 287 l-92 94 -1058 0 -1058 0
-35 -37z m444 -903 c278 -72 500 -122 565 -127 39 -3 81 -12 95 -21 38 -24
184 -24 303 -1 103 21 359 85 464 118 34 10 64 16 67 13 3 -3 6 -30 6 -59 0
-85 -41 -149 -116 -183 -23 -10 -47 -28 -54 -40 -10 -19 -4 -29 65 -98 52 -51
111 -127 180 -232 115 -175 133 -207 177 -323 l32 -82 7 -275 c5 -222 11 -299
30 -400 29 -159 32 -462 6 -575 -33 -146 -137 -373 -215 -472 -130 -164 -271
-268 -455 -337 -129 -48 -240 -66 -416 -66 -266 0 -483 49 -706 160 -207 103
-337 223 -415 385 -70 144 -91 312 -105 815 -9 289 -20 357 -79 473 l-46 88
25 155 c28 170 49 229 143 394 74 128 178 266 287 377 63 64 84 91 68 86 -47
-11 -56 -8 -65 22 -10 36 -12 193 -3 218 9 23 20 22 155 -13z m2081 -1105 c69
-24 79 -44 79 -161 0 -92 -3 -106 -30 -160 -44 -88 -170 -231 -170 -194 0 7
16 75 35 151 34 137 45 242 25 254 -17 10 -36 -61 -96 -343 -20 -95 -27 -92
-43 18 -16 118 -23 218 -12 195 5 -11 10 -31 10 -45 1 -20 3 -22 11 -10 5 8
10 44 10 80 0 129 43 200 136 230 1 0 21 -7 45 -15z m-2845 -58 c72 -74 134
-191 164 -311 35 -137 25 -142 -38 -16 -71 141 -140 260 -151 260 -5 0 -14
-14 -20 -31 -10 -30 -8 -35 27 -73 38 -42 142 -205 142 -224 0 -29 -146 44
-191 95 -59 68 -119 232 -105 289 17 67 24 74 68 74 39 0 47 -5 104 -63z m485
-1684 c157 -185 347 -305 584 -369 136 -36 418 -46 577 -19 305 51 547 169
750 365 l108 105 0 -85 0 -84 -67 -66 c-427 -414 -1092 -508 -1670 -235 -89
42 -271 153 -292 179 -6 7 -24 73 -41 147 -17 74 -33 143 -36 154 l-5 20 16
-20 c8 -11 43 -52 76 -92z"/>
<path d="M2905 3272 c-49 -17 -155 -89 -155 -104 0 -11 34 -10 46 1 5 5 58 21
118 36 91 23 125 27 210 23 86 -3 110 -8 156 -30 30 -15 56 -25 58 -23 10 9
-53 59 -106 82 -77 36 -249 43 -327 15z"/>
<path d="M1729 3178 c-22 -24 -46 -59 -55 -78 -8 -19 -23 -49 -32 -67 -13 -26
-14 -34 -2 -48 21 -25 41 -14 59 35 13 37 27 51 71 78 73 43 151 66 209 59 25
-3 92 -10 149 -17 57 -7 105 -10 108 -7 2 2 2 11 -1 19 -13 33 -211 68 -378
68 l-89 0 -39 -42z"/>
<path d="M3017 3058 c-26 -7 -41 -18 -48 -35 -13 -34 -12 -37 14 -65 26 -30
94 -44 142 -28 38 12 78 62 73 92 -6 40 -98 58 -181 36z m113 -53 c0 -11 -11
-15 -42 -14 l-43 1 40 13 c22 7 41 13 43 14 1 1 2 -6 2 -14z"/>
<path d="M1943 3018 c-79 -27 -117 -126 -64 -169 64 -52 251 10 251 84 0 12
-13 38 -28 56 -23 28 -35 34 -77 37 -28 2 -64 -2 -82 -8z m107 -72 c0 -22 -46
-46 -90 -46 -55 0 -48 19 16 41 61 22 74 23 74 5z"/>
<path d="M2709 2666 c61 -98 -25 -216 -169 -233 -41 -5 -59 -1 -105 21 -30 15
-55 31 -55 35 0 4 -9 18 -20 31 -11 13 -20 31 -20 40 0 24 -26 45 -35 30 -12
-19 5 -114 25 -148 14 -23 32 -35 71 -46 101 -30 187 -15 288 52 93 62 109
135 46 218 -34 44 -53 44 -26 0z"/>
<path d="M2895 2364 c-68 -37 -223 -113 -259 -128 -45 -19 -93 -21 -133 -5
-25 10 -294 38 -365 39 -23 0 -28 -4 -28 -24 0 -36 66 -50 232 -51 76 0 138
-3 138 -7 0 -14 84 -8 163 12 134 34 332 136 321 165 -8 19 -31 19 -69 -1z"/>
<path d="M2482 2065 c-74 -32 -10 -39 188 -19 50 6 53 7 35 20 -26 19 -179 18
-223 -1z"/>
<path d="M4121 3894 c0 -11 3 -14 6 -6 3 7 2 16 -1 19 -3 4 -6 -2 -5 -13z"/>
<path d="M1066 2465 c-11 -8 -15 -15 -9 -15 6 0 16 7 23 15 16 19 11 19 -14 0z"/>
<path d="M1390 273 c0 -5 -6 -46 -14 -93 -31 -182 -30 -180 -2 -180 l26 0 0
140 c0 77 -2 140 -5 140 -3 0 -5 -3 -5 -7z"/>
<path d="M3708 134 c-3 -2 0 -32 7 -66 11 -61 12 -63 43 -66 36 -4 36 -3 20
67 -9 41 -16 52 -39 60 -15 5 -29 7 -31 5z"/>
</g>
</svg>
